<mxfile host="app.diagrams.net" modified="2023-05-01T20:40:32.231Z" agent="Mozilla/5.0 (X11; Linux x86_64; rv:109.0) Gecko/20100101 Firefox/112.0" etag="bcK3VVMQCrAZmh6A2jjV" version="21.2.1" type="github">
  <diagram name="Page-1" id="wxqKnzym9CbN2hfAzfNq">
    <mxGraphModel dx="1588" dy="1900" grid="1" gridSize="10" guides="1" tooltips="1" connect="1" arrows="1" fold="1" page="1" pageScale="1" pageWidth="850" pageHeight="1100" math="0" shadow="0">
      <root>
        <mxCell id="0" />
        <mxCell id="1" parent="0" />
        <mxCell id="Oei4Xzemq2DtPW6H26rk-1" value="&lt;div&gt;&lt;b&gt;&quot;AI is neither&lt;span dir=&quot;ltr&quot; role=&quot;presentation&quot; style=&quot;left: 79.96%; top: 32.31%; font-size: calc(var(--scale-factor)*11.00px); font-family: sans-serif;&quot;&gt; &lt;/span&gt;&lt;span dir=&quot;ltr&quot; role=&quot;presentation&quot; style=&quot;left: 80.87%; top: 32.31%; font-size: calc(var(--scale-factor)*11.00px); font-family: sans-serif; transform: scaleX(0.895917);&quot;&gt;ar&lt;/span&gt;&lt;span dir=&quot;ltr&quot; role=&quot;presentation&quot; style=&quot;left: 15.91%; top: 34.6%; font-size: calc(var(--scale-factor)*11.00px); font-family: sans-serif; transform: scaleX(0.931646);&quot;&gt;ti&lt;/span&gt;&lt;span dir=&quot;ltr&quot; role=&quot;presentation&quot; style=&quot;left: 17.49%; top: 34.6%; font-size: calc(var(--scale-factor)*11.00px); font-family: sans-serif; transform: scaleX(0.886565);&quot;&gt;fi&lt;/span&gt;&lt;span dir=&quot;ltr&quot; role=&quot;presentation&quot; style=&quot;left: 18.96%; top: 34.6%; font-size: calc(var(--scale-factor)*11.00px); font-family: sans-serif; transform: scaleX(0.890899);&quot;&gt;cial&lt;/span&gt;&lt;span dir=&quot;ltr&quot; role=&quot;presentation&quot; style=&quot;left: 22.81%; top: 34.6%; font-size: calc(var(--scale-factor)*11.00px); font-family: sans-serif;&quot;&gt; &lt;/span&gt;&lt;span dir=&quot;ltr&quot; role=&quot;presentation&quot; style=&quot;left: 24.08%; top: 34.6%; font-size: calc(var(--scale-factor)*11.00px); font-family: sans-serif; transform: scaleX(0.871713);&quot;&gt;nor&lt;/span&gt;&lt;span dir=&quot;ltr&quot; role=&quot;presentation&quot; style=&quot;left: 28.04%; top: 34.6%; font-size: calc(var(--scale-factor)*11.00px); font-family: sans-serif;&quot;&gt; &lt;/span&gt;&lt;span dir=&quot;ltr&quot; role=&quot;presentation&quot; style=&quot;left: 29.32%; top: 34.6%; font-size: calc(var(--scale-factor)*11.00px); font-family: sans-serif; transform: scaleX(0.817957);&quot;&gt;intelligent&quot; (Crawford, 2021)&lt;br&gt;&lt;/span&gt;&lt;/b&gt;&lt;/div&gt;&lt;div&gt;&lt;b&gt;&lt;span dir=&quot;ltr&quot; role=&quot;presentation&quot; style=&quot;left: 29.32%; top: 34.6%; font-size: calc(var(--scale-factor)*11.00px); font-family: sans-serif; transform: scaleX(0.817957);&quot;&gt;&lt;br&gt;&lt;/span&gt;&lt;/b&gt;&lt;/div&gt;&lt;div&gt;&lt;span dir=&quot;ltr&quot; role=&quot;presentation&quot; style=&quot;left: 29.32%; top: 34.6%; font-size: calc(var(--scale-factor)*11.00px); font-family: sans-serif; transform: scaleX(0.817957);&quot;&gt;AI is often seen as disembodied intelligence that is completely disconnected from the physical/material world. In contrast to that Crawford points out that AI clearly has a connection to the material world since it is build upon the resources of the planet (like minerals, oil, etc.) and of it&#39;s inhabitants (e.g. human labor). Furthermore AI depends on political and social structures and already formed assumptions about intelligence.&amp;nbsp; &lt;br&gt;&lt;/span&gt;&lt;/div&gt;" style="rounded=1;whiteSpace=wrap;html=1;fillColor=#dae8fc;strokeColor=#6c8ebf;" parent="1" vertex="1">
          <mxGeometry x="250" y="-290" width="380" height="200" as="geometry" />
        </mxCell>
        <mxCell id="Oei4Xzemq2DtPW6H26rk-7" style="edgeStyle=orthogonalEdgeStyle;rounded=0;orthogonalLoop=1;jettySize=auto;html=1;entryX=0.5;entryY=0;entryDx=0;entryDy=0;strokeColor=#7EA6E0;" parent="1" source="Oei4Xzemq2DtPW6H26rk-2" edge="1">
          <mxGeometry relative="1" as="geometry">
            <mxPoint x="420" y="-290" as="targetPoint" />
          </mxGeometry>
        </mxCell>
        <mxCell id="IGWxZJ-rzR9LiD5vWE0U-2" style="rounded=0;orthogonalLoop=1;jettySize=auto;html=1;exitX=0.5;exitY=0;exitDx=0;exitDy=0;shape=link;edgeStyle=orthogonalEdgeStyle;strokeColor=#000000;" edge="1" parent="1" source="IGWxZJ-rzR9LiD5vWE0U-3" target="IGWxZJ-rzR9LiD5vWE0U-1">
          <mxGeometry relative="1" as="geometry" />
        </mxCell>
        <mxCell id="Oei4Xzemq2DtPW6H26rk-2" value="&lt;div&gt;&lt;b&gt;AI reflects and produces social relationships and understandings of the world (Crawford, 2021)&lt;/b&gt;&lt;/div&gt;&lt;div&gt;We see AI as intelligent, since our assumption is that solving math problems fast is an expression of intelligence. And the assumption that AI is intelligent also influences our perception of intelligence. &lt;br&gt;&lt;/div&gt;&lt;div&gt;We feed the AI with our premade assumptions and biases about the world and the AI will reproduce and strengthen these biases. &lt;br&gt;&lt;/div&gt;" style="rounded=1;whiteSpace=wrap;html=1;fillColor=#dae8fc;strokeColor=#6c8ebf;" parent="1" vertex="1">
          <mxGeometry x="40" y="-560" width="320" height="160" as="geometry" />
        </mxCell>
        <mxCell id="Oei4Xzemq2DtPW6H26rk-6" value="When we change our assumptions about AI we can maybe change how these assumptions are reproduced" style="rounded=1;whiteSpace=wrap;html=1;" parent="1" vertex="1">
          <mxGeometry x="230" y="-390" width="150" height="80" as="geometry" />
        </mxCell>
        <mxCell id="Oei4Xzemq2DtPW6H26rk-8" value="&lt;div align=&quot;left&quot;&gt;&lt;b&gt;&lt;font style=&quot;font-size: 15px;&quot;&gt;Questions:&lt;/font&gt;&lt;/b&gt;&lt;/div&gt;&lt;div align=&quot;left&quot;&gt;&lt;ul&gt;&lt;li&gt;With DALLE2 existing as intelligent program, is now the fast production of images seen as intelligence?&amp;nbsp;&lt;/li&gt;&lt;/ul&gt;&lt;/div&gt;&lt;div align=&quot;left&quot;&gt;&lt;ul&gt;&lt;li&gt;&lt;br&gt;&lt;/li&gt;&lt;/ul&gt;&lt;/div&gt;" style="whiteSpace=wrap;html=1;aspect=fixed;" parent="1" vertex="1">
          <mxGeometry x="250" y="730" width="340" height="340" as="geometry" />
        </mxCell>
        <mxCell id="Oei4Xzemq2DtPW6H26rk-12" style="edgeStyle=orthogonalEdgeStyle;rounded=0;orthogonalLoop=1;jettySize=auto;html=1;exitX=0;exitY=0.5;exitDx=0;exitDy=0;entryX=1;entryY=0.5;entryDx=0;entryDy=0;strokeColor=#7EA6E0;" parent="1" source="Oei4Xzemq2DtPW6H26rk-9" target="Oei4Xzemq2DtPW6H26rk-2" edge="1">
          <mxGeometry relative="1" as="geometry" />
        </mxCell>
        <mxCell id="IGWxZJ-rzR9LiD5vWE0U-13" style="edgeStyle=orthogonalEdgeStyle;rounded=0;orthogonalLoop=1;jettySize=auto;html=1;exitX=0.25;exitY=0;exitDx=0;exitDy=0;entryX=0.75;entryY=1;entryDx=0;entryDy=0;strokeColor=#B5739D;" edge="1" parent="1" source="Oei4Xzemq2DtPW6H26rk-9" target="IGWxZJ-rzR9LiD5vWE0U-5">
          <mxGeometry relative="1" as="geometry" />
        </mxCell>
        <mxCell id="IGWxZJ-rzR9LiD5vWE0U-14" style="edgeStyle=orthogonalEdgeStyle;rounded=0;orthogonalLoop=1;jettySize=auto;html=1;exitX=0.25;exitY=0;exitDx=0;exitDy=0;entryX=0;entryY=0.4;entryDx=0;entryDy=0;entryPerimeter=0;strokeColor=#B5739D;" edge="1" parent="1" source="Oei4Xzemq2DtPW6H26rk-9" target="IGWxZJ-rzR9LiD5vWE0U-8">
          <mxGeometry relative="1" as="geometry" />
        </mxCell>
        <mxCell id="Oei4Xzemq2DtPW6H26rk-9" value="&lt;div&gt;&lt;b&gt;Atlas of AI (Crawford, 2021):&lt;/b&gt;&lt;/div&gt;&lt;div&gt;To see the connections and relations and also the power that AI has over our material world, social relations, assumptions about the world and politics the Atlas of AI should show the following relations:&lt;/div&gt;&lt;div&gt;Which states and corporations dominate and drive AI (who decides?)&lt;/div&gt;&lt;div&gt;and who is impacted by AI in a positive or negative way. Who benefits from AI, who is doing the exploitative labor to run AI, what ecosystems are destroyed by AI and which data is captured.&lt;br&gt;&lt;/div&gt;" style="rounded=1;whiteSpace=wrap;html=1;fillColor=#dae8fc;strokeColor=#6c8ebf;" parent="1" vertex="1">
          <mxGeometry x="510" y="-660" width="310" height="190" as="geometry" />
        </mxCell>
        <mxCell id="Oei4Xzemq2DtPW6H26rk-11" value="By better understanding the system behind AI we can better analyze it&#39;s power structures" style="rounded=1;whiteSpace=wrap;html=1;" parent="1" vertex="1">
          <mxGeometry x="380" y="-600" width="120" height="100" as="geometry" />
        </mxCell>
        <mxCell id="IGWxZJ-rzR9LiD5vWE0U-1" value="&lt;div&gt;Goal of DeepMind:&lt;/div&gt;&lt;div&gt;&quot;solve intelligence&quot;&lt;br&gt;&lt;/div&gt;" style="rounded=1;whiteSpace=wrap;html=1;fillColor=#dc8add;strokeColor=#9C22B4;" vertex="1" parent="1">
          <mxGeometry x="100" y="-710" width="120" height="60" as="geometry" />
        </mxCell>
        <mxCell id="IGWxZJ-rzR9LiD5vWE0U-4" value="" style="rounded=0;orthogonalLoop=1;jettySize=auto;html=1;exitX=0.5;exitY=0;exitDx=0;exitDy=0;shape=link;edgeStyle=orthogonalEdgeStyle;strokeColor=#000000;" edge="1" parent="1" source="Oei4Xzemq2DtPW6H26rk-2" target="IGWxZJ-rzR9LiD5vWE0U-3">
          <mxGeometry relative="1" as="geometry">
            <mxPoint x="200" y="-560" as="sourcePoint" />
            <mxPoint x="190" y="-630" as="targetPoint" />
          </mxGeometry>
        </mxCell>
        <mxCell id="IGWxZJ-rzR9LiD5vWE0U-3" value="AI and intelligence" style="ellipse;whiteSpace=wrap;html=1;" vertex="1" parent="1">
          <mxGeometry x="130" y="-620" width="140" height="50" as="geometry" />
        </mxCell>
        <mxCell id="IGWxZJ-rzR9LiD5vWE0U-10" style="edgeStyle=orthogonalEdgeStyle;rounded=0;orthogonalLoop=1;jettySize=auto;html=1;entryX=0.005;entryY=0.455;entryDx=0;entryDy=0;entryPerimeter=0;strokeColor=#B5739D;" edge="1" parent="1" source="IGWxZJ-rzR9LiD5vWE0U-5" target="IGWxZJ-rzR9LiD5vWE0U-8">
          <mxGeometry relative="1" as="geometry" />
        </mxCell>
        <mxCell id="IGWxZJ-rzR9LiD5vWE0U-5" value="&lt;b&gt;Capitalism Composition (Steinhoff):&lt;/b&gt;&lt;br&gt;&lt;div align=&quot;justify&quot;&gt;The AI marked consists of several parties dominated by the big tech industries like Google and Facebook, which are holding marked shares in consumer commodity and fixed capital. Apart from them the AI &quot;dinosaurs&quot; like Siemens focused on industrial manufacturing.&lt;br&gt;Startups usually focus on specific services or products and are usually acquired by the big tech companies and even if not they are connected to these tech giants since they use their infrastructure. &lt;br&gt;&lt;/div&gt;&lt;div align=&quot;justify&quot;&gt;AI think tanks are founded by academia and industries and even though it is not their only purpose they are important for public relations and &quot;democratization&quot; of AI. &lt;br&gt;&lt;/div&gt;" style="rounded=1;fillColor=#DC8ADD;strokeColor=#9C22B4;align=center;horizontal=1;verticalAlign=middle;labelPosition=center;verticalLabelPosition=middle;whiteSpace=wrap;html=1;" vertex="1" parent="1">
          <mxGeometry x="40" y="-1030" width="300" height="270" as="geometry" />
        </mxCell>
        <mxCell id="IGWxZJ-rzR9LiD5vWE0U-7" value="The connections of AI in the commercial marked" style="rounded=1;whiteSpace=wrap;html=1;" vertex="1" parent="1">
          <mxGeometry x="370" y="-730" width="120" height="60" as="geometry" />
        </mxCell>
        <mxCell id="IGWxZJ-rzR9LiD5vWE0U-8" value="&lt;div&gt;&lt;b&gt;Platform Capitalists (Steinhoff):&lt;/b&gt;&lt;/div&gt;&lt;div&gt;AI products are often connected to platforms with which they form a virtuous loop: the AI/ML product optimizes the platform and the platform collects data for the AI/ML product.&amp;nbsp;&lt;/div&gt;&lt;div&gt;Since the data collection can be used or is already a form of surveillance the capital itself is build upon and depends on surveillance.&lt;br&gt;&lt;/div&gt;" style="rounded=1;whiteSpace=wrap;html=1;fillColor=#DC8ADD;strokeColor=#9c22b4;" vertex="1" parent="1">
          <mxGeometry x="620" y="-1090" width="210" height="200" as="geometry" />
        </mxCell>
        <mxCell id="IGWxZJ-rzR9LiD5vWE0U-11" value="How could these AI infrastructures look like" style="rounded=1;whiteSpace=wrap;html=1;" vertex="1" parent="1">
          <mxGeometry x="480" y="-1030" width="120" height="60" as="geometry" />
        </mxCell>
      </root>
    </mxGraphModel>
  </diagram>
</mxfile>
